<svg width="54" height="37" viewBox="0 0 54 37" fill="none" xmlns="http://www.w3.org/2000/svg">
<path d="M47.1534 34.7938L8.49336 25.8951H14.3094C14.332 26.0685 14.456 26.2191 14.6347 26.2605L39.7934 32.0512C39.8254 32.0579 39.8587 32.0618 39.8907 32.0618C40.0787 32.0618 40.252 31.9378 40.3053 31.7485C40.82 29.9298 42.4507 28.7192 44.272 28.6979C44.5333 28.6952 44.7974 28.7165 45.0627 28.7632C45.2894 28.8032 45.5067 28.6592 45.5587 28.4352L46.1747 25.7579C46.2413 25.7179 46.3027 25.6686 46.3561 25.6126C46.5187 25.4472 46.62 25.2205 46.62 24.9712V23.8245L47.5707 19.6925C47.6227 19.4685 47.4894 19.2432 47.268 19.1805C47.0414 19.1165 46.8267 19.0326 46.62 18.9352V13.4831L51.7853 14.6712L47.1534 34.7938ZM1.84935 24.0472V1.84981H44.772V24.0472H1.84935ZM28.452 25.8951H30.6107C29.904 26.0298 29.176 26.0298 28.452 25.8951ZM29.5307 27.0951C30.8187 27.0951 32.0853 26.7338 33.2053 26.0338C33.2733 25.9911 33.3374 25.9418 33.404 25.8951H45.2587L44.8067 27.8579C44.664 27.8432 44.5227 27.8351 44.3814 27.8338C42.5334 27.8125 40.8333 28.8046 39.936 30.4019C39.808 30.6299 39.696 30.8711 39.6027 31.1218L16.896 25.8951H25.6214C25.796 26.0138 25.9774 26.1245 26.1627 26.2271C26.3014 26.3045 26.444 26.3765 26.588 26.4432C27.0214 26.6472 27.48 26.8058 27.9574 26.9152C28.48 27.0365 29.0067 27.0951 29.5307 27.0951ZM46.62 19.8739C46.628 19.8766 46.6347 19.8805 46.6427 19.8831L46.62 19.9792V19.8739ZM53.1 13.0778L46.62 11.5859V0.925848C46.62 0.415182 46.2067 0.000457924 45.696 0.000457924H0.925391C0.414724 0.000457924 0 0.415182 0 0.925848V24.9712C0 25.4818 0.414724 25.8951 0.925391 25.8951H4.83066L4.80801 25.9966C4.75334 26.2339 4.79472 26.4858 4.92539 26.6938C5.05606 26.9005 5.2627 27.0498 5.50137 27.1045L5.98405 27.2152L47.712 36.8111C47.7574 36.8178 47.8027 36.8271 47.848 36.8271C48.2614 36.8271 48.6334 36.5472 48.74 36.1325L52.904 18.0498L53.7934 14.1859C53.8494 13.9459 53.8067 13.6965 53.6773 13.4885C53.5467 13.2791 53.34 13.1325 53.1 13.0778" fill="#6c6c6c"/>
<path d="M40.752 17.3301C38.4026 17.6501 36.5626 19.5514 36.26 21.9767H10.3613C10.0573 19.5514 8.2173 17.6501 5.86797 17.3301V8.56601C8.2173 8.24735 10.0573 6.34604 10.3613 3.9207H36.26C36.564 6.34604 38.4027 8.24735 40.7533 8.56601L40.752 17.3301ZM41.2306 7.70065C39.0039 7.58465 37.24 5.75533 37.128 3.44466C37.1173 3.20333 36.9173 3.01276 36.676 3.01276H9.94531C9.70398 3.01276 9.50399 3.20333 9.49199 3.44466C9.37999 5.75533 7.61729 7.58465 5.39062 7.70065C5.15062 7.71265 4.95996 7.91137 4.95996 8.15404V17.7421C4.95996 17.9834 5.14929 18.182 5.39062 18.1953C7.61729 18.3113 9.37999 20.1408 9.49199 22.4514C9.50399 22.6941 9.70398 22.8848 9.94531 22.8848H36.676C36.9173 22.8848 37.1173 22.6941 37.128 22.4514C37.24 20.1408 39.004 18.3113 41.2293 18.1953C41.4706 18.182 41.66 17.9834 41.66 17.7421V8.15404C41.66 7.91137 41.4706 7.71265 41.2306 7.70065" fill="#6c6c6c"/>
<path d="M23.54 19.2198C20.2 19.2198 17.4827 16.4052 17.4827 12.9465C17.4827 9.48915 20.2 6.67448 23.54 6.67448C26.88 6.67448 29.5973 9.48915 29.5973 12.9465C29.5973 16.4052 26.88 19.2198 23.54 19.2198ZM23.54 5.52643C19.5654 5.52643 16.332 8.85448 16.332 12.9465C16.332 17.0398 19.5654 20.3691 23.54 20.3691C27.5134 20.3691 30.7467 17.0398 30.7467 12.9465C30.7467 8.85448 27.5134 5.52643 23.54 5.52643Z" fill="#6c6c6c"/>
</svg>
