<svg width="50" height="37" viewBox="0 0 50 37" fill="none" xmlns="http://www.w3.org/2000/svg">
<path d="M46.8548 15.1916C46.8922 15.2183 46.9335 15.2449 46.9762 15.2716C47.1548 15.3782 47.3241 15.4983 47.4801 15.6583C47.4881 15.6716 47.4962 15.685 47.5042 15.685C47.9202 16.125 48.1482 16.7116 48.1482 17.3249C48.1482 18.5116 47.3229 19.4983 46.2255 19.5916C46.1869 19.5916 46.1482 19.6049 46.1095 19.6049C45.9255 19.6449 45.7708 19.6716 45.5081 19.6183C45.4255 19.605 45.3441 19.5915 45.2748 19.5782C45.1855 19.5382 45.0948 19.4982 44.9828 19.4449C44.9228 19.4049 44.8642 19.3782 44.8095 19.3382C44.7948 19.3249 44.7815 19.3115 44.7669 19.3115L42.9362 17.8982C42.9229 17.8849 42.9095 17.8716 42.8962 17.8716L32.4362 10.6316C32.3469 10.5782 32.2468 10.5249 32.1428 10.4982C31.7588 10.4049 31.3242 10.3649 30.8295 10.3916C30.7722 10.4049 30.7148 10.405 30.6602 10.4183C30.0562 10.5783 26.7095 11.5116 24.0042 12.2716L23.8188 12.3249C22.9908 12.5916 22.1695 12.8182 21.3575 13.0316L20.6748 13.2183C19.6668 13.4983 18.9468 13.7116 18.7721 13.7516C18.6961 13.7783 18.6255 13.8049 18.5562 13.8449C17.3749 14.5382 16.6402 15.8583 16.6402 17.2583C16.6402 19.1916 17.9562 20.8182 19.7695 21.1382C19.8215 21.1516 19.8735 21.1516 19.9282 21.1516H26.5695C27.0909 21.1516 27.5175 21.6316 27.5175 22.2316C27.5175 22.8182 27.0909 23.2982 26.5695 23.2982H19.4669C18.5509 23.3249 17.4269 23.3382 16.0335 23.3382C13.2469 23.3382 11.3148 22.1916 9.64284 20.9516C9.20684 20.6183 8.78286 20.285 8.36153 19.9516C6.4882 18.4716 4.5562 16.9382 1.8642 16.6449V9.97819L1.85085 8.9916C1.85885 8.9516 1.8615 8.91155 1.86283 8.87155C2.82417 8.76488 4.07219 8.49824 5.58952 8.09824C5.62552 8.08491 5.66016 8.0716 5.6935 8.05827L6.02683 7.92494C10.9628 6.6316 20.9029 3.93819 28.3869 1.91153L28.4415 1.89824C28.8895 1.80491 29.2802 1.83155 29.7655 2.00488L29.8415 2.04486L46.1348 14.6316L46.8548 15.1916ZM24.8775 19.2049C24.8588 19.2316 24.8495 19.2715 24.8375 19.3115H20.0162C19.1268 19.1115 18.4895 18.2716 18.4895 17.2583C18.4895 16.5383 18.8362 15.8716 19.4042 15.4982C19.6908 15.4182 20.3335 15.2316 21.1775 14.9916L21.8375 14.8049C22.6575 14.6049 23.5055 14.3649 24.3428 14.0982L24.5095 14.0583C28.1148 13.0449 30.4082 12.4049 31.0242 12.2449C31.2148 12.2315 31.3908 12.2449 31.5375 12.2583L33.2068 13.4183C29.7482 13.7916 26.6228 15.9382 24.8775 19.2049V19.2049ZM37.9589 21.0183C38.0482 21.1116 38.0922 21.2183 38.0908 21.3249C38.0882 21.4716 38.0175 21.5916 37.8801 21.685L36.8708 22.3516L36.8682 22.3649C36.8682 22.3649 36.6909 22.4583 36.5615 22.4583C36.4029 22.4583 36.2628 22.4049 36.1415 22.2982C35.9441 22.1116 35.7402 21.9649 35.5268 21.8583V23.6716C36.7322 23.8449 37.6215 24.2983 38.1895 25.0183C38.5402 25.4716 38.7095 26.0316 38.6962 26.6716C38.6775 27.7249 38.2468 28.5383 37.4081 29.1249C36.8748 29.4983 36.2482 29.7382 35.5268 29.8449V30.7382C35.5268 31.0315 35.3069 31.2583 35.0362 31.2583H34.1375C33.8642 31.2583 33.6455 31.0315 33.6455 30.7382V29.8583C32.8322 29.7116 32.0988 29.3782 31.4495 28.8449C31.0482 28.5249 30.7268 28.1782 30.4882 27.8316C30.4188 27.7516 30.3828 27.6583 30.3815 27.5516C30.3788 27.3916 30.4548 27.2582 30.6108 27.1649L31.5295 26.5916H31.5335C31.5335 26.5916 31.7108 26.5115 31.8015 26.5115C31.9668 26.5115 32.1002 26.5782 32.1988 26.7115C32.6535 27.2449 33.1362 27.5916 33.6455 27.7916V25.5382C32.4655 25.3382 31.6108 24.8715 31.0855 24.1115C30.7722 23.6715 30.6095 23.1649 30.6002 22.5916C30.5802 21.4183 31.1735 20.5383 32.3842 19.9516C32.7589 19.7783 33.1788 19.6449 33.6455 19.5782V18.5916C33.6455 18.2983 33.8642 18.0583 34.1375 18.0583H35.0362C35.3069 18.0583 35.5268 18.2983 35.5268 18.5916V19.6049C36.5188 19.7916 37.3295 20.2583 37.9589 21.0183V21.0183ZM34.3042 35.1516C29.2468 35.1516 25.0642 30.9115 24.7229 25.5782H27.0988C28.4668 25.5782 29.6348 24.6582 30.0828 23.3782C30.1802 23.7782 30.3468 24.1382 30.5788 24.4716C31.1175 25.2449 31.9415 25.7649 33.0295 26.0316V26.685C32.9108 26.5783 32.7948 26.4583 32.6788 26.3249C32.4642 26.0449 32.1535 25.885 31.8015 25.885C31.6122 25.885 31.4082 25.9649 31.2708 26.0316C31.2482 26.0449 31.2229 26.0582 31.2029 26.0716L30.2855 26.6449C30.2842 26.6449 30.2842 26.6449 30.2842 26.6449C29.9429 26.8582 29.7588 27.1782 29.7655 27.5649C29.7695 27.7916 29.8482 28.0049 29.9922 28.1916C30.2629 28.5916 30.6229 28.9783 31.0589 29.3249C31.6469 29.8049 32.3082 30.1516 33.0295 30.3516V30.7382C33.0295 31.3649 33.5268 31.885 34.1375 31.885H35.0362C35.6469 31.885 36.1441 31.3649 36.1441 30.7382V30.3516C36.7468 30.205 37.2895 29.9516 37.7642 29.6316C38.7695 28.9116 39.2908 27.925 39.3135 26.685C39.3295 25.8983 39.1135 25.2049 38.6735 24.6449C38.0962 23.9115 37.2455 23.405 36.1441 23.1516V23.0049C36.2748 23.0449 36.4122 23.0716 36.5548 23.0716C36.8215 23.0849 37.0669 22.9516 37.1642 22.8982C37.1789 22.8849 37.1975 22.8849 37.2135 22.8716L38.2242 22.1916C38.5282 21.9916 38.7002 21.6849 38.7068 21.3382C38.7108 21.0582 38.6095 20.8182 38.4162 20.6049C37.8095 19.8849 37.0468 19.3782 36.1441 19.1115V18.5916C36.1441 17.9516 35.6469 17.4449 35.0362 17.4449H34.1375C33.5268 17.4449 33.0295 17.9516 33.0295 18.5916V19.0716C32.7028 19.1516 32.3962 19.2582 32.1148 19.4049C30.9922 19.9516 30.4335 20.6849 30.1762 21.3916C29.9415 20.4583 29.3229 19.6449 28.4669 19.2049C28.0269 18.9916 27.5668 18.8716 27.0988 18.8716H26.5081C28.3055 16.2049 31.2108 14.5782 34.3042 14.5782C34.4455 14.5782 34.5842 14.5916 34.7229 14.6049L42.1335 19.7249L42.9162 20.3249C43.5788 21.7649 43.9148 23.2849 43.9148 24.8716C43.9148 30.5382 39.6042 35.1516 34.3042 35.1516V35.1516ZM30.6002 0.35163L30.4708 0.298244C30.4535 0.298244 30.4362 0.284963 30.4188 0.284963C29.5948 -0.0217036 28.8402 -0.075089 28.0362 0.0982444C28.0189 0.0982444 28.0002 0.0981923 27.9828 0.111526L27.9015 0.124937C20.3948 2.16494 10.4149 4.87163 5.50287 6.15163C5.46554 6.16496 5.4295 6.17827 5.3935 6.1916L5.06153 6.32494C3.23086 6.81827 1.76814 7.08496 0.938809 7.08496C0.428142 7.08496 0.0148503 7.49822 0.0148503 8.00488V8.68496C0.00418365 8.7383 -0.00113146 8.7916 0.000201875 8.85827L0.0148503 17.3649C-0.0291497 17.6049 0.0281472 17.8582 0.177481 18.0716C0.350814 18.3116 0.629493 18.4449 0.92416 18.4449C3.47749 18.4449 5.20952 19.8182 7.21485 21.4049C7.64952 21.7516 8.08817 22.0982 8.54017 22.4316C10.3735 23.7916 12.6989 25.1916 16.0335 25.1916C17.4469 25.1916 18.5895 25.1783 19.4962 25.1516H23.4735C23.6148 31.365 28.4362 36.3916 34.3042 36.3916C40.2828 36.3916 45.1468 31.2182 45.1468 24.8716C45.1468 23.6449 44.9602 22.445 44.6015 21.285C44.6362 21.2983 44.6695 21.3249 44.7055 21.3249C44.8601 21.3783 45.0228 21.4182 45.2135 21.4449C45.7001 21.5249 46.0602 21.5116 46.4522 21.4316C48.4775 21.2182 49.9988 19.4583 49.9988 17.3249C49.9988 16.2449 49.5962 15.2182 48.8669 14.4449C48.8522 14.4182 48.8362 14.4049 48.8202 14.3916C48.5509 14.1116 48.2522 13.8716 47.9335 13.685L30.8682 0.498244C30.7855 0.431578 30.6949 0.39163 30.6002 0.35163" fill="#211D1D"/>
</svg>
