<svg width="35" height="49" viewBox="0 0 35 49" fill="none" xmlns="http://www.w3.org/2000/svg">
<path d="M23.8826 40.3756H3.33066C2.51333 40.3756 1.84928 39.7102 1.84928 38.8929V3.33028C1.84928 2.51294 2.51333 1.84759 3.33066 1.84759H31.4213C32.2386 1.84759 32.9027 2.51294 32.9027 3.33028V31.8702H28.5853C25.9933 31.8702 23.8826 33.981 23.8826 36.5743V40.3756ZM26.188 39.3943V36.3369C26.188 35.0769 27.2133 34.0516 28.4733 34.0516H31.8546L26.188 39.3943ZM25.3973 42.005L25.4 42.0063C25.596 42.0063 25.7906 41.9329 25.94 41.7916L34.3773 33.8369C34.536 33.6862 34.6146 33.4796 34.6173 33.2689C34.7 33.1303 34.7506 32.969 34.7506 32.7956V3.33028C34.7506 1.49428 33.2573 -0.000323004 31.4213 -0.000323004H3.33066C1.49466 -0.000323004 0 1.49428 0 3.33028V38.8929C0 40.7289 1.49466 42.2236 3.33066 42.2236H24.8066C25.032 42.2236 25.236 42.141 25.3973 42.005Z" fill="#6c6c6c"/>
<path d="M7.38128 9.89297H27.3706V11.1797H7.38128V9.89297ZM7.19593 12.2891H27.556C28.0666 12.2891 28.4799 11.8743 28.4799 11.3637V9.70768C28.4799 9.19702 28.0666 8.78372 27.556 8.78372H7.19593C6.6866 8.78372 6.27197 9.19702 6.27197 9.70768V11.3637C6.27197 11.8743 6.6866 12.2891 7.19593 12.2891Z" fill="#6c6c6c"/>
<path d="M7.38128 15.688H27.3706V16.9746H7.38128V15.688ZM7.19593 18.084H27.556C28.0666 18.084 28.4799 17.6693 28.4799 17.1586V15.5026C28.4799 14.9919 28.0666 14.5786 27.556 14.5786H7.19593C6.6866 14.5786 6.27197 14.9919 6.27197 15.5026V17.1586C6.27197 17.6693 6.6866 18.084 7.19593 18.084Z" fill="#6c6c6c"/>
<path d="M27.3706 22.7695H7.38128V21.4829H27.3706V22.7695ZM28.4799 22.9549V21.2988C28.4799 20.7868 28.0666 20.3736 27.556 20.3736H7.19593C6.6866 20.3736 6.27197 20.7868 6.27197 21.2988V22.9549C6.27197 23.4656 6.6866 23.8789 7.19593 23.8789H27.556C28.0666 23.8789 28.4799 23.4656 28.4799 22.9549Z" fill="#6c6c6c"/>
</svg>
