<svg width="39" height="43" viewBox="0 0 39 43" fill="none" xmlns="http://www.w3.org/2000/svg">
<path d="M22.748 30.2001C22.748 36.0401 17.9947 40.7867 12.1534 40.7867C6.31072 40.7867 1.55872 36.0401 1.55872 30.2001C1.55872 24.3601 6.31072 19.6001 12.1534 19.6001C17.9947 19.6001 22.748 24.3601 22.748 30.2001ZM25.8081 18.8001C26.7974 18.8001 33.736 18.7334 36.8013 17.04V20.3067C36.8 20.3334 36.7987 20.3734 36.7987 20.4001C36.7987 20.4134 36.8 20.4267 36.8013 20.44C36.7306 21.8 31.8267 22.9067 25.8081 22.9067C24.3641 22.9067 22.9867 22.84 21.7214 22.72C20.02 20.5467 17.5961 18.96 14.8134 18.3467V17.04C17.8774 18.7334 24.8214 18.8001 25.8081 18.8001V18.8001ZM25.8081 7.35996C26.7974 7.35996 33.736 7.2934 36.8013 5.60007V8.85332C36.8 8.89332 36.7987 8.92002 36.7987 8.94668C36.7987 8.96002 36.8 8.97332 36.8013 8.98666C36.7306 10.3467 31.8267 11.4533 25.8081 11.4533C19.7894 11.4533 14.884 10.3467 14.816 8.98666C14.8187 8.95999 14.8186 8.93337 14.8186 8.90671C14.8186 8.89337 14.8173 8.87999 14.816 8.85332L14.8134 5.60007C17.8774 7.2934 24.8214 7.35996 25.8081 7.35996V7.35996ZM25.8081 1.80007C32.0494 1.80007 35.9161 2.96002 36.5694 3.68002C35.9161 4.40002 32.0494 5.55996 25.8081 5.55996C19.5681 5.55996 15.7 4.40002 15.048 3.68002C15.7 2.96002 19.5681 1.80007 25.8081 1.80007ZM36.8013 13.9734C36.8 14.0134 36.7987 14.0401 36.7987 14.0667C36.7987 14.0801 36.8 14.0934 36.8013 14.1067C36.7306 15.4667 31.8267 16.5734 25.8081 16.5734C19.7894 16.5734 14.884 15.4667 14.816 14.1067C14.8187 14.08 14.8186 14.0533 14.8186 14.0266C14.8186 14.0133 14.8173 14 14.816 13.9734L14.8134 11.1334C17.4294 12.7867 23.0107 13.0133 25.8081 13.0133C28.6067 13.0133 34.1853 12.7867 36.8013 11.1334V13.9734ZM36.8013 25.4266C36.8 25.4533 36.7987 25.4933 36.7987 25.52C36.7987 25.5333 36.8 25.5466 36.8013 25.56C36.7306 26.92 31.8267 28.0266 25.8081 28.0266C25.2254 28.0266 24.6587 28.0133 24.1 27.9867C23.8627 26.7067 23.424 25.48 22.8147 24.3734C23.9507 24.44 24.9987 24.4533 25.8081 24.4533C28.6067 24.4533 34.1853 24.24 36.8013 22.5867V25.4266ZM36.8013 30.0933C36.8 30.12 36.7987 30.16 36.7987 30.1867C36.7987 30.2 36.8 30.2133 36.8013 30.2266C36.7306 31.5866 31.8267 32.6933 25.8081 32.6933C25.2107 32.6933 24.6267 32.68 24.0547 32.6533C24.2174 31.8533 24.304 31.0401 24.304 30.2001C24.304 29.9867 24.2987 29.7733 24.288 29.56C24.8467 29.5733 25.3654 29.5734 25.8081 29.5734C28.6067 29.5734 34.1853 29.36 36.8013 27.7067V30.0933ZM12.1534 18.04C5.45205 18.04 0 23.4934 0 30.2001C0 36.8934 5.45205 42.3467 12.1534 42.3467C17.4507 42.3467 21.964 38.9334 23.624 34.2001C24.444 34.2401 25.1947 34.24 25.8081 34.24C29.5401 34.24 38.2186 33.8533 38.2186 30.1867C38.2186 30.1867 38.2173 30.1733 38.2173 30.16C38.2173 30.1466 38.2186 30.1467 38.2186 30.1334V25.4667V25.2533C38.2413 25.1467 38.2534 25.0267 38.2534 24.92C38.2534 24.8 38.24 24.7067 38.2186 24.6001V20.5867C38.2413 20.48 38.2534 20.36 38.2534 20.2533C38.2534 20.1333 38.24 20.0401 38.2186 19.9334V15.4667C38.2413 15.3601 38.2534 15.2401 38.2534 15.1334C38.2534 14.9334 38.216 14.76 38.1534 14.5867C38.192 14.4267 38.2186 14.2533 38.2186 14.08C38.2186 14.0667 38.2173 14.0534 38.2173 14.04C38.2173 14.04 38.2186 14.0267 38.2186 14.0133V9.1334C38.2413 9.02673 38.2534 8.92007 38.2534 8.80007C38.2534 8.6934 38.24 8.58668 38.2186 8.48002V4.01335C38.2413 3.90668 38.2534 3.80002 38.2534 3.68002C38.2534 3.48002 38.2147 3.29332 38.148 3.11999C38.04 2.73332 37.8054 2.42663 37.4934 2.22663C34.9587 0.0799634 26.8814 6.76282e-05 25.8081 6.76282e-05C24.7374 6.76282e-05 16.66 0.0799634 14.124 2.22663C13.812 2.42663 13.5774 2.73337 13.4694 3.10671C13.4027 3.29337 13.3626 3.48002 13.3626 3.68002C13.3626 3.80002 13.376 3.90668 13.3987 4.01335V8.48002C13.3774 8.58668 13.3626 8.6934 13.3626 8.80007C13.3626 8.92007 13.376 9.02673 13.3987 9.1334V14.0133C13.3987 14.0267 13.3987 14.04 13.4 14.0533C13.3987 14.0667 13.3987 14.0667 13.3987 14.08C13.3987 14.2533 13.4254 14.4267 13.4641 14.5867C13.4027 14.76 13.3626 14.9334 13.3626 15.1334C13.3626 15.2401 13.376 15.3601 13.3987 15.4667V18.1067C12.9894 18.0667 12.5734 18.04 12.1534 18.04" fill="#211D1D"/>
<path d="M19.3027 30.2001C19.3027 34.1335 16.0946 37.3467 12.1519 37.3467C8.21059 37.3467 5.0027 34.1335 5.0027 30.2001C5.0027 26.2535 8.21059 23.0401 12.1519 23.0401C16.0946 23.0401 19.3027 26.2535 19.3027 30.2001ZM3.96533 30.2001C3.96533 34.7068 7.63725 38.3867 12.1519 38.3867C16.6666 38.3867 20.3399 34.7068 20.3399 30.2001C20.3399 25.6801 16.6666 22.0134 12.1519 22.0134C7.63725 22.0134 3.96533 25.6801 3.96533 30.2001Z" fill="#211D1D"/>
<path d="M12.1894 26.2932V25.5466H12.4667V26.2133C12.4667 26.4799 12.6694 26.6933 12.9361 26.7199C13.3121 26.7599 13.6561 26.8533 13.9601 27L13.8267 27.3599C13.7214 27.3066 13.6027 27.2533 13.4654 27.2133C13.1467 27.0933 12.8041 27.04 12.4441 27.04C11.9627 27.0533 11.5801 27.1866 11.3094 27.44C11.0788 27.6666 10.952 27.9733 10.952 28.3066C10.952 28.5066 10.9868 28.6666 11.0588 28.8133C11.1294 28.9599 11.2321 29.0932 11.3774 29.2266C11.6094 29.4266 11.9787 29.6266 12.572 29.8799C12.5734 29.8799 12.5735 29.8799 12.5748 29.8799C13.0401 30.0666 13.38 30.2533 13.64 30.4667C13.8987 30.68 14.0787 30.9333 14.1774 31.2C14.2454 31.4 14.2787 31.6133 14.2787 31.8533C14.28 32.2666 14.1307 32.6666 13.856 32.9866C13.8547 32.9866 13.8547 32.9866 13.8547 32.9866C13.5961 33.2799 13.228 33.4933 12.7907 33.6C12.5573 33.6667 12.3947 33.8666 12.3947 34.1066V34.8799H12.1054V34.1866C12.1054 33.9066 11.8987 33.6933 11.6321 33.6667C11.3907 33.64 11.1534 33.6 10.9227 33.5333C10.696 33.4667 10.4947 33.3866 10.328 33.2932L10.4588 32.9333C10.9361 33.1867 11.5081 33.3333 12.0441 33.3333C12.5267 33.3333 12.9267 33.1999 13.2334 32.9466C13.5374 32.6799 13.7001 32.3333 13.7041 31.9333C13.7041 31.7333 13.6694 31.5599 13.5987 31.3866C13.5307 31.2266 13.432 31.0799 13.296 30.9466C13.0587 30.7066 12.7041 30.4932 12.2094 30.2932C11.7228 30.1066 11.3707 29.92 11.1013 29.7333C10.8107 29.52 10.6161 29.3066 10.5041 29.0533C10.4267 28.8666 10.3868 28.6666 10.3868 28.44C10.3868 28.0266 10.5374 27.6267 10.8148 27.3333C11.0574 27.08 11.3961 26.8933 11.7934 26.8C12.0254 26.7333 12.1894 26.5332 12.1894 26.2932V26.2932ZM11.1507 25.0266V25.9066C10.724 26.0666 10.3507 26.3199 10.0573 26.6266C9.6 27.1199 9.34806 27.76 9.34939 28.44C9.34939 28.8133 9.41743 29.1467 9.55343 29.4667C9.7401 29.8933 10.0574 30.2666 10.4987 30.5733C10.8387 30.8266 11.2614 31.0399 11.8267 31.2533C12.2881 31.4399 12.4814 31.5999 12.556 31.6799C12.612 31.7333 12.6321 31.7733 12.6441 31.8C12.6547 31.8267 12.6654 31.8533 12.6654 31.9199C12.6654 32.0266 12.6361 32.0933 12.5654 32.1466C12.4561 32.2399 12.2707 32.2932 12.052 32.2932C11.536 32.3199 11.0561 32.0933 10.7827 31.9199L10.4761 31.7066C10.3428 31.6266 10.1774 31.5999 10.0254 31.6533C9.87343 31.6933 9.75338 31.8132 9.70004 31.9599L9.21606 33.3199C9.13739 33.5333 9.21478 33.7733 9.40278 33.9199L9.58012 34.04C9.86679 34.24 10.2214 34.4133 10.6321 34.5333C10.7747 34.5733 10.92 34.5999 11.0667 34.6266V35.4C11.0667 35.6933 11.3 35.9199 11.5853 35.9199H12.9135C13.2001 35.9199 13.4334 35.6933 13.4334 35.4V34.4932C13.9107 34.3066 14.3227 34.0267 14.6374 33.6667C15.0774 33.16 15.3187 32.52 15.3187 31.84C15.3187 31.4933 15.2627 31.1599 15.1547 30.8533C14.9934 30.3999 14.7054 30 14.3 29.6667C13.9627 29.3867 13.5467 29.16 12.9947 28.9333C12.9774 28.92 12.9588 28.9066 12.9415 28.9066C12.3841 28.68 12.1588 28.5333 12.0641 28.4533C12.0294 28.4133 12.0053 28.3866 11.996 28.3733C11.9933 28.36 11.9907 28.3466 11.9907 28.3066C11.9907 28.2666 11.9974 28.2266 12.0334 28.1866C12.1027 28.1199 12.2495 28.0799 12.4468 28.0799C12.6935 28.0799 12.9187 28.1199 13.1347 28.1866C13.3107 28.2533 13.4414 28.3199 13.5494 28.3866L13.8415 28.5466C13.9735 28.6266 14.1321 28.6399 14.2748 28.5866C14.4175 28.5333 14.5307 28.4266 14.584 28.2799L15.0894 26.9599C15.1774 26.7199 15.084 26.4533 14.8667 26.3199L14.6573 26.2C14.308 26 13.9214 25.8532 13.5041 25.7599V25.0266C13.5041 24.7466 13.272 24.5199 12.9853 24.5199H11.6694C11.3828 24.5199 11.1507 24.7466 11.1507 25.0266" fill="#211D1D"/>
</svg>
