<svg width="42" height="30" viewBox="0 0 42 30" fill="none" xmlns="http://www.w3.org/2000/svg">
<path d="M6.2229 4.00169C7.38157 2.84303 8.91886 2.20433 10.5522 2.203C13.9269 2.203 16.6749 4.95095 16.6775 8.32695C16.6775 9.95762 16.0389 11.4963 14.8802 12.6563C13.7229 13.8136 12.1869 14.4523 10.5536 14.4523H10.5522C7.1762 14.4523 4.42954 11.7056 4.42687 8.33229C4.42687 6.69763 5.06557 5.16036 6.2229 4.00169V4.00169ZM10.5522 16.6562H10.5536C12.7749 16.6562 14.8656 15.7883 16.4402 14.2137C18.0149 12.6377 18.8816 10.547 18.8816 8.32565C18.8789 3.73365 15.1415 0.000261409 10.5522 0.000261409C8.32953 0.000261409 6.23884 0.868303 4.66418 2.44297C3.08951 4.01764 2.2229 6.10963 2.2229 8.33229C2.22557 12.9216 5.96153 16.6562 10.5522 16.6562Z" fill="#211D1D"/>
<path d="M26.2229 4.00169C27.3816 2.84303 28.9189 2.20433 30.5522 2.203C33.9269 2.203 36.6749 4.95095 36.6775 8.32695C36.6775 9.95762 36.0389 11.4963 34.8802 12.6563C33.7229 13.8136 32.1869 14.4523 30.5536 14.4523H30.5522C27.1762 14.4523 24.4282 11.7056 24.4269 8.33229C24.4269 6.69763 25.0642 5.16036 26.2229 4.00169ZM30.5522 16.6562H30.5536C32.7762 16.6562 34.8669 15.7883 36.4402 14.2137C38.0149 12.6377 38.8816 10.547 38.8816 8.32565C38.8789 3.73365 35.1429 0.000261307 30.5522 0.000261307C28.3295 0.000261307 26.2388 0.868303 24.6642 2.44297C23.0895 4.01764 22.2229 6.10963 22.2229 8.33229C22.2242 12.9216 25.9615 16.6562 30.5522 16.6562Z" fill="#211D1D"/>
<path d="M22.7961 27.2014C24.5841 25.708 27.4455 23.0399 28.4401 20.5333C31.4095 21.2093 34.2294 20.2466 35.9801 19.1933C38.2201 21.7306 38.7454 25.404 38.8641 27.1973L22.7961 27.2014ZM14.7161 18.8773C14.7161 17.5493 15.4988 17.0614 16.1562 16.8854C16.3735 16.8267 16.6068 16.7973 16.8494 16.7973C17.9561 16.7973 18.9601 17.3934 19.5334 18.3907C19.8548 18.9467 20.4588 19.2934 21.1188 19.296C21.7721 19.2907 22.3735 18.932 22.6895 18.36C23.4202 17.0346 24.9188 16.6293 26.0202 16.9133C26.6908 17.0867 27.4908 17.5666 27.4908 18.8773C27.4908 21.0013 24.3468 24.372 21.1054 26.8933C18.5601 24.8946 14.7161 21.2519 14.7161 18.8773V18.8773ZM2.25746 27.2014C2.59479 22.9974 4.42143 20.3479 5.39209 19.2173C8.27876 21.1333 11.3135 20.996 13.6601 20.2373C14.4508 22.556 16.9722 25.0747 18.8228 26.692C18.8402 26.872 18.8548 27.044 18.8641 27.1973L2.25746 27.2014ZM41.1015 28.336C41.1108 28.0387 41.2894 21.0066 36.8668 16.9546C36.4721 16.5933 35.8761 16.5679 35.4508 16.8946C35.4135 16.9239 32.3121 19.2493 28.7575 18.3413C28.5028 16.3693 26.8748 15.7866 26.3455 15.6506C24.7575 15.2413 22.5988 15.824 21.5468 17.732C21.4588 17.892 21.2894 17.9907 21.1161 17.992C20.9308 17.992 20.7521 17.8919 20.6641 17.7386C19.8548 16.3333 18.4294 15.4933 16.8494 15.4933C16.4934 15.4933 16.1455 15.5374 15.8188 15.624C15.3361 15.7534 13.9242 16.2746 13.5228 17.932C11.6708 18.6706 8.75343 19.176 5.9641 16.9027C5.54943 16.5653 4.95078 16.5747 4.54678 16.9253C4.36545 17.0827 0.108101 20.868 0.00010123 28.288C-0.00389877 28.5826 0.110786 28.8666 0.318786 29.0773C0.525453 29.2866 0.808138 29.4053 1.10414 29.4053L20.0001 29.4014C20.2001 29.4014 20.3854 29.3439 20.5494 29.2506C20.7161 29.3479 20.9068 29.4053 21.1041 29.4053L40.0001 29.4014C40.5948 29.4014 41.0801 28.9307 41.1015 28.336" fill="#211D1D"/>
</svg>
