<svg width="46" height="49" viewBox="0 0 46 49" fill="none" xmlns="http://www.w3.org/2000/svg">
<path d="M1.86191 40.0066V34.4425C4.28324 34.1692 6.02857 32.8745 7.72324 31.6171C8.10457 31.3331 8.48854 31.0491 8.88587 30.7718C10.4005 29.7158 12.1539 28.7372 14.6739 28.7372C15.9406 28.7372 16.9539 28.7479 17.7939 28.7732H24.2606C24.6873 28.7732 25.0472 29.1239 25.0472 29.5532C25.0472 29.9839 24.6873 30.3331 24.2606 30.3331H18.2205C18.1672 30.3331 18.1139 30.3371 18.0739 30.3451C16.3806 30.6238 15.1406 32.0718 15.1406 33.7878C15.1406 35.0518 15.8338 36.2185 16.9538 36.8331C17.0205 36.8691 17.0872 36.8972 17.1538 36.9158C17.3538 36.9692 18.2739 37.2145 19.5139 37.5412C20.2472 37.7199 20.9938 37.9172 21.7538 38.1346L21.9273 38.1784C25.5673 39.1425 27.5405 39.6599 27.9805 39.7626C28.0339 39.7746 28.0872 39.7826 28.1406 39.7852C28.6072 39.8106 28.9939 39.7798 29.3406 39.6945C29.4472 39.6691 29.5405 39.6292 29.6205 39.5732L39.1406 33.4012C39.1539 33.3932 39.1672 33.3838 39.1805 33.3758L40.8606 32.1639C40.8739 32.1585 40.8738 32.1532 40.8872 32.1479C40.9272 32.1145 40.9806 32.0892 41.0339 32.0626C41.1406 32.0092 41.2205 31.9772 41.2872 31.9545C41.3538 31.9345 41.4206 31.9211 41.5006 31.9118C41.6739 31.8838 41.8605 31.8852 42.0472 31.9212C42.0739 31.9292 42.1138 31.9345 42.1538 31.9372C43.1005 32.0198 43.8205 32.7958 43.8205 33.7425C43.8205 34.2212 43.6206 34.6745 43.2739 35.0199C43.2739 35.0265 43.2606 35.0318 43.2606 35.0372C43.1273 35.1705 42.9672 35.2772 42.8205 35.3572C42.7805 35.3786 42.7406 35.4038 42.7006 35.4331L42.0339 35.9105L27.2205 46.6492C27.2072 46.6585 27.1805 46.6678 27.1538 46.6771C26.7272 46.8225 26.3672 46.8438 25.9805 46.7705L25.9273 46.7585C16.1139 44.2599 9.07916 42.4852 5.57649 41.6199L5.27519 41.5092C5.24319 41.4985 5.21126 41.4879 5.17793 41.4799C3.82859 41.1412 2.71523 40.9225 1.85123 40.8252L1.86191 40.0066ZM0.937952 42.6145C1.68595 42.6145 3.01256 42.8438 4.67923 43.2611L4.98991 43.3745C5.02057 43.3865 5.05257 43.3945 5.08457 43.4038C8.5659 44.2612 15.6072 46.0412 25.4739 48.5492L25.5406 48.5665C25.5539 48.5718 25.5806 48.5759 25.5939 48.5812C25.8739 48.6332 26.1406 48.6611 26.4072 48.6611C26.8606 48.6611 27.3139 48.5811 27.7805 48.4171C27.7939 48.4118 27.8072 48.4079 27.8205 48.4025L27.9406 48.3585C28.0339 48.3292 28.1272 48.2838 28.2072 48.2225L43.7273 36.9665C44.0206 36.8078 44.3005 36.6051 44.5538 36.3611C44.5672 36.3491 44.5806 36.3358 44.5939 36.3225C45.2873 35.6291 45.6739 34.7145 45.6739 33.7425C45.6739 31.8465 44.2473 30.2906 42.3673 30.1012C42.0073 30.0319 41.6472 30.0185 41.2205 30.0825C41.0605 30.1078 40.9005 30.1412 40.7538 30.1852C40.5805 30.2399 40.3939 30.3145 40.2072 30.4145C40.1139 30.4585 40.0072 30.5118 39.9139 30.5705C39.8872 30.5892 39.8605 30.6092 39.8205 30.6292L38.1273 31.8639L28.7673 37.9252C28.6473 37.9425 28.5005 37.9478 28.3139 37.9425C27.7672 37.8065 25.7806 37.2865 22.3939 36.3919L22.2472 36.3519C21.4872 36.1332 20.7139 35.9292 19.9672 35.7492C18.9139 35.4718 18.0872 35.2519 17.7538 35.1639C17.2872 34.8639 16.9939 34.3452 16.9939 33.7878C16.9939 33.0038 17.5406 32.3385 18.3006 32.1825H24.2606C25.7139 32.1825 26.8872 31.0025 26.8872 29.5532C26.8872 28.1052 25.7139 26.9252 24.2606 26.9252H17.8205C16.9938 26.8999 15.9539 26.8878 14.6739 26.8878C11.6312 26.8878 9.50591 28.0851 7.82858 29.2558C7.41658 29.5425 7.0166 29.8385 6.62194 30.1318C4.8046 31.4798 3.23521 32.6451 0.924541 32.6451C0.625874 32.6451 0.347223 32.7879 0.17389 33.0305C0.0285563 33.2332 -0.0274385 33.4825 0.0125615 33.7225L0.000582372 40.9626C0.000582372 41.0199 0.00456154 41.0759 0.0125615 41.1305V41.6919C0.0125615 42.2012 0.427286 42.6145 0.937952 42.6145" fill="#6c6c6c"/>
<path d="M13.7673 14.3057L13.2739 13.8204C12.8339 13.3697 12.8339 12.6364 13.2739 12.1857L22.1406 3.33106C22.1539 3.30972 22.1806 3.28706 22.194 3.26439L23.2739 2.18835C23.7006 1.75235 24.4739 1.75235 24.9139 2.18835L25.9806 3.25905C26.0072 3.28305 26.0206 3.30706 26.0472 3.33106L34.9006 12.1857C35.354 12.6364 35.354 13.3697 34.9006 13.8204L34.4205 14.3057L24.7406 4.63366C24.5673 4.46033 24.3405 4.36309 24.0872 4.36309C23.8472 4.36309 23.6073 4.46033 23.434 4.63366L13.7673 14.3057ZM31.4872 22.1257C31.4872 22.691 31.0206 23.151 30.4606 23.151H28.0739C28.1539 23.0216 28.1806 22.8736 28.1806 22.7176V15.0924C28.1806 14.5817 27.7673 14.167 27.2606 14.167H20.9139C20.4072 14.167 19.994 14.5817 19.994 15.0924V22.7176C19.994 22.8736 20.034 23.0216 20.1006 23.151H17.7273C17.154 23.151 16.7006 22.691 16.7006 22.1257V13.987L24.0872 6.59499L28.8073 11.315L31.4872 13.9883V22.1257ZM26.3406 21.7924H21.8472V16.0163H26.3406V21.7924ZM17.7273 24.999H30.4606C32.0473 24.999 33.3273 23.7097 33.3273 22.1257V15.8364L33.7673 16.2657C34.1273 16.627 34.7139 16.627 35.0739 16.267L36.2073 15.127C37.3806 13.955 37.3806 12.0496 36.2073 10.879L27.4205 2.09238C27.4072 2.06705 27.3805 2.04305 27.3539 2.02038L26.2205 0.880405C25.6472 0.313738 24.9005 0.000327011 24.0872 0.000327011C23.2872 0.000327011 22.5273 0.313738 21.9673 0.880405L20.8205 2.02038C20.8072 2.04171 20.7806 2.06305 20.7673 2.08705L11.9673 10.879C10.8006 12.0496 10.8006 13.955 11.9673 15.127L13.1139 16.267C13.2872 16.4457 13.5273 16.5377 13.7673 16.5377C14.0073 16.5377 14.2339 16.4457 14.4205 16.267L14.8472 15.8351V22.1257C14.8472 23.7097 16.1406 24.999 17.7273 24.999Z" fill="#6c6c6c"/>
</svg>
