<svg width="275" height="222" viewBox="0 0 275 222" fill="none" xmlns="http://www.w3.org/2000/svg">
<g clip-path="url(#clip0_332_175)">
<path d="M124.9 176.64V202.86" stroke="#FEAA00" stroke-width="2"/>
<path d="M133.732 202.86V176.64" stroke="#FEAA00" stroke-width="2"/>
<path d="M196.384 13.248C233.368 50.508 233.368 110.676 196.384 147.66C159.124 184.644 98.9562 184.644 61.9722 147.66" stroke="#FEAA00" stroke-width="2"/>
<path d="M156.364 204.516H102.268C90.676 204.516 89.02 213.624 89.02 213.624H169.612C169.612 213.348 167.68 204.516 156.364 204.516Z" stroke="#FEAA00" stroke-width="2"/>
<path d="M89.0201 213.348C87.0881 213.348 85.4321 214.728 85.4321 216.384V218.316C85.4321 219.972 87.0881 221.352 89.0201 221.352H169.612C171.544 221.352 173.2 219.972 173.2 218.316V216.384C173.2 214.728 171.544 213.348 169.612 213.348H89.0201Z" stroke="#FEAA00" stroke-width="2"/>
<path d="M209.632 80.316C209.632 35.88 173.752 0 129.316 0C84.88 0 49 35.88 49 80.316C49 124.752 84.88 160.632 129.316 160.632C173.752 160.632 209.632 124.752 209.632 80.316Z" stroke="#FEAA00" stroke-width="2"/>
<path d="M186.172 137.172C217.636 105.708 217.636 54.9239 186.172 23.7359C154.708 -7.72806 103.924 -7.72806 72.7362 23.7359C41.2722 55.1999 41.2722 105.984 72.7362 137.172C103.924 168.636 154.708 168.636 186.172 137.172Z" stroke="#FEAA00" stroke-width="2"/>
<path d="M87.6401 146.832C111.1 155.664 144.22 146.004 169.612 120.612C195.004 95.2199 204.664 62.0999 195.832 38.6399" stroke="#FEAA00" stroke-width="2"/>
<path d="M170.992 14.0761C147.532 5.24411 114.412 14.9041 89.02 40.2961C63.628 65.6881 53.968 98.8081 62.8 122.268" stroke="#FEAA00" stroke-width="2"/>
<path d="M88.7441 140.208C104.752 137.172 127.936 122.544 149.74 100.74C171.544 78.936 186.172 55.476 188.932 39.468" stroke="#FEAA00" stroke-width="2"/>
<path d="M169.888 20.7C153.88 23.736 130.696 38.088 108.892 59.8919C87.3642 81.4199 73.0122 104.604 69.7002 120.612" stroke="#FEAA00" stroke-width="2"/>
<path d="M93.7119 8.55591L201.076 116.196" stroke="#FEAA00" stroke-width="2"/>
<path d="M57.5562 44.7119L164.92 152.076" stroke="#FEAA00" stroke-width="2"/>
<path d="M177.064 32.844L81.5679 128.064" stroke="#FEAA00" stroke-width="2"/>
<path d="M197.212 37.536C190.864 27.6 182.308 19.044 172.372 12.696C161.884 23.184 187 47.472 197.212 37.536Z" stroke="#FEAA00" stroke-width="2"/>
<path d="M61.4199 123.372C67.7679 133.308 76.3239 141.864 86.2599 148.212C96.7479 137.724 71.6319 113.436 61.4199 123.372Z" stroke="#FEAA00" stroke-width="2"/>
<path d="M177.064 32.844L81.5679 128.064" stroke="#FEAA00" stroke-width="2"/>
<path d="M72.4602 137.172L57.5562 152.352" stroke="#FEAA00" stroke-width="2"/>
<path d="M201.076 8.55591L186.172 23.7359" stroke="#FEAA00" stroke-width="2"/>
</g>
<defs>
<clipPath id="clip0_332_175">
<rect width="273.68" height="221.35" fill="white"/>
</clipPath>
</defs>
</svg>
