<svg width="275" height="222" viewBox="0 0 275 222" fill="none" xmlns="http://www.w3.org/2000/svg">
<g clip-path="url(#clip0_332_199)">
<path d="M221.122 157.637H191.216V221.35H221.122V157.637Z" stroke="#FEAA00" stroke-width="2"/>
<path d="M84.2804 157.637H54.3745V221.35H84.2804V157.637Z" stroke="#FEAA00" stroke-width="2"/>
<path d="M147.415 43.3728H128.384V60.7219H147.415V43.3728Z" stroke="#FEAA00" stroke-width="2"/>
<path d="M153.155 61.0208H122.645V93.9241H153.155V61.0208Z" stroke="#FEAA00" stroke-width="2"/>
<path d="M191.216 118.751H161.311V221.35H191.216V118.751Z" stroke="#FEAA00" stroke-width="2"/>
<path d="M114.186 118.751H84.2803V221.35H114.186V118.751Z" stroke="#FEAA00" stroke-width="2"/>
<path d="M161.613 93.9243H114.186V221.051H161.613V93.9243Z" stroke="#FEAA00" stroke-width="2"/>
<path d="M137.748 34.0999L128.384 43.3726H147.113L137.748 34.0999Z" stroke="#FEAA00" stroke-width="2"/>
<path d="M137.748 34.0999V0" stroke="#FEAA00" stroke-width="2"/>
<path d="M0 221.051H273.684" stroke="#FEAA00" stroke-width="2"/>
<path d="M28.3955 221.051V207.59" stroke="#FEAA00" stroke-width="2"/>
<path d="M28.3954 206.693C33.4004 206.693 37.4578 202.676 37.4578 197.719C37.4578 192.763 33.4004 188.746 28.3954 188.746C23.3904 188.746 19.333 192.763 19.333 197.719C19.333 202.676 23.3904 206.693 28.3954 206.693Z" stroke="#FEAA00" stroke-width="2"/>
<path d="M246.195 221.051V210.582" stroke="#FEAA00" stroke-width="2"/>
<path d="M136.54 52.3462H138.655" stroke="#FEAA00" stroke-width="2"/>
<path d="M148.926 195.625H127.176V221.051H148.926V195.625Z" stroke="#FEAA00" stroke-width="2"/>
<path d="M138.05 196.523V221.051" stroke="#FEAA00" stroke-width="2"/>
<path d="M135.634 18.2463H139.863" stroke="#FEAA00" stroke-width="2"/>
<path d="M135.634 10.7683H139.863" stroke="#FEAA00" stroke-width="2"/>
<path d="M135.634 25.7246H139.863" stroke="#FEAA00" stroke-width="2"/>
<path d="M255.257 200.711C255.257 195.925 246.195 171.098 246.195 171.098C246.195 171.098 237.132 195.626 237.132 200.711C237.132 205.497 241.059 209.684 246.195 209.684C251.028 209.385 255.257 205.497 255.257 200.711Z" stroke="#FEAA00" stroke-width="2"/>
<path d="M91.2278 83.1556C90.9257 83.1556 83.9779 83.1556 77.9363 83.1556C77.9363 78.0706 73.7072 73.5838 68.2698 73.5838C67.9677 73.5838 67.6656 73.5838 67.0615 73.5838C65.249 69.9943 61.624 67.6013 57.3949 67.6013C52.8637 67.6013 48.9367 70.5925 47.4263 74.7802C45.9159 73.8829 44.4055 73.5838 42.593 73.5838C37.1556 73.5838 32.9264 77.7715 32.9264 83.1556C31.114 83.1556 27.489 83.1556 27.1869 83.1556C23.2599 83.1556 19.937 86.446 19.937 90.3346C19.937 94.2231 23.2599 97.5135 27.1869 97.5135C28.3952 97.5135 89.1133 97.5135 90.6237 97.5135C94.5507 97.5135 97.8736 94.2231 97.8736 90.3346C98.7798 86.1469 95.4569 83.1556 91.2278 83.1556Z" stroke="#FEAA00" stroke-width="2"/>
<path d="M265.528 125.332C265.226 125.332 260.997 125.332 259.486 125.332C258.278 121.144 254.049 117.854 249.518 117.854C247.705 117.854 245.893 118.452 244.382 119.35C242.872 114.863 238.341 111.573 233.205 111.573C226.862 111.573 221.424 116.658 221.424 123.238V125.631C217.497 125.631 214.779 125.631 214.476 125.631C209.945 125.631 206.32 129.221 206.32 133.708C206.32 138.194 209.945 141.784 214.476 141.784C215.987 141.784 263.715 141.784 265.226 141.784C269.757 141.784 273.382 138.194 273.382 133.708C273.684 128.922 270.059 125.332 265.528 125.332Z" stroke="#FEAA00" stroke-width="2"/>
<path d="M206.623 80.1646C217.801 80.1646 226.862 71.1918 226.862 60.1234C226.862 49.055 217.801 40.0823 206.623 40.0823C195.445 40.0823 186.383 49.055 186.383 60.1234C186.383 71.1918 195.445 80.1646 206.623 80.1646Z" stroke="#FEAA00" stroke-width="2"/>
<path d="M135.634 70.8918H139.863" stroke="#FEAA00" stroke-width="2"/>
<path d="M135.634 83.7542H139.863" stroke="#FEAA00" stroke-width="2"/>
<path d="M173.998 209.385H178.227" stroke="#FEAA00" stroke-width="2"/>
<path d="M173.998 196.224H178.227" stroke="#FEAA00" stroke-width="2"/>
<path d="M173.998 183.362H178.227" stroke="#FEAA00" stroke-width="2"/>
<path d="M173.998 170.499H178.227" stroke="#FEAA00" stroke-width="2"/>
<path d="M203.904 209.385H208.133" stroke="#FEAA00" stroke-width="2"/>
<path d="M203.904 196.224H208.133" stroke="#FEAA00" stroke-width="2"/>
<path d="M203.904 183.362H208.133" stroke="#FEAA00" stroke-width="2"/>
<path d="M203.904 170.499H208.133" stroke="#FEAA00" stroke-width="2"/>
<path d="M67.0615 209.385H71.2906" stroke="#FEAA00" stroke-width="2"/>
<path d="M67.0615 196.224H71.2906" stroke="#FEAA00" stroke-width="2"/>
<path d="M67.0615 183.362H71.2906" stroke="#FEAA00" stroke-width="2"/>
<path d="M67.0615 170.499H71.2906" stroke="#FEAA00" stroke-width="2"/>
<path d="M173.998 157.637H178.227" stroke="#FEAA00" stroke-width="2"/>
<path d="M173.998 131.614H178.227" stroke="#FEAA00" stroke-width="2"/>
<path d="M173.998 144.476H178.227" stroke="#FEAA00" stroke-width="2"/>
<path d="M96.9678 209.385H101.197" stroke="#FEAA00" stroke-width="2"/>
<path d="M96.9678 196.224H101.197" stroke="#FEAA00" stroke-width="2"/>
<path d="M96.9678 183.362H101.197" stroke="#FEAA00" stroke-width="2"/>
<path d="M96.9678 170.499H101.197" stroke="#FEAA00" stroke-width="2"/>
<path d="M96.9678 157.637H101.197" stroke="#FEAA00" stroke-width="2"/>
<path d="M96.9678 131.614H101.197" stroke="#FEAA00" stroke-width="2"/>
<path d="M96.9678 144.476H101.197" stroke="#FEAA00" stroke-width="2"/>
<path d="M128.082 183.362H132.311" stroke="#FEAA00" stroke-width="2"/>
<path d="M128.082 170.499H132.311" stroke="#FEAA00" stroke-width="2"/>
<path d="M128.082 157.637H132.311" stroke="#FEAA00" stroke-width="2"/>
<path d="M128.082 144.476H132.311" stroke="#FEAA00" stroke-width="2"/>
<path d="M128.082 131.614H132.311" stroke="#FEAA00" stroke-width="2"/>
<path d="M128.082 105.59H132.311" stroke="#FEAA00" stroke-width="2"/>
<path d="M128.082 118.751H132.311" stroke="#FEAA00" stroke-width="2"/>
<path d="M144.092 183.362H148.321" stroke="#FEAA00" stroke-width="2"/>
<path d="M144.092 170.499H148.321" stroke="#FEAA00" stroke-width="2"/>
<path d="M144.092 157.637H148.321" stroke="#FEAA00" stroke-width="2"/>
<path d="M144.092 144.476H148.321" stroke="#FEAA00" stroke-width="2"/>
<path d="M144.092 131.614H148.321" stroke="#FEAA00" stroke-width="2"/>
<path d="M144.092 105.59H148.321" stroke="#FEAA00" stroke-width="2"/>
<path d="M144.092 118.751H148.321" stroke="#FEAA00" stroke-width="2"/>
</g>
<defs>
<clipPath id="clip0_332_199">
<rect width="273.68" height="221.35" fill="white"/>
</clipPath>
</defs>
</svg>
