<svg width="275" height="222" viewBox="0 0 275 222" fill="none" xmlns="http://www.w3.org/2000/svg">
<g clip-path="url(#clip0_332_223)">
<path d="M248.348 110.674C248.348 49.6009 198.747 0 137.674 0C76.6009 0 27 49.6009 27 110.674C27 171.747 76.6009 221.348 137.674 221.348C198.747 221.686 248.348 172.085 248.348 110.674Z" stroke="#FEAA00" stroke-width="2"/>
<path d="M137.674 209.539C192.275 209.539 236.538 165.276 236.538 110.674C236.538 56.0729 192.275 11.8098 137.674 11.8098C83.0727 11.8098 38.8096 56.0729 38.8096 110.674C38.8096 165.276 83.0727 209.539 137.674 209.539Z" stroke="#FEAA00" stroke-width="2"/>
<path d="M137.674 190.98V198.066" stroke="#FEAA00" stroke-width="2"/>
<path d="M177.49 180.183L181.201 186.256" stroke="#FEAA00" stroke-width="2"/>
<path d="M206.846 150.827L212.919 154.202" stroke="#FEAA00" stroke-width="2"/>
<path d="M217.643 110.674H224.729" stroke="#FEAA00" stroke-width="2"/>
<path d="M206.846 70.8584L212.919 67.1467" stroke="#FEAA00" stroke-width="2"/>
<path d="M177.49 41.5028L181.201 35.4292" stroke="#FEAA00" stroke-width="2"/>
<path d="M137.674 30.7052V23.6194" stroke="#FEAA00" stroke-width="2"/>
<path d="M138.687 104.6L148.134 53.9873" stroke="#FEAA00" stroke-width="2"/>
<path d="M97.5212 41.5028L94.147 35.4292" stroke="#FEAA00" stroke-width="2"/>
<path d="M68.1654 70.8584L62.0918 67.1467" stroke="#FEAA00" stroke-width="2"/>
<path d="M57.7055 110.674H50.6196" stroke="#FEAA00" stroke-width="2"/>
<path d="M68.1654 150.827L62.0918 154.202" stroke="#FEAA00" stroke-width="2"/>
<path d="M97.5212 180.183L94.147 186.256" stroke="#FEAA00" stroke-width="2"/>
<path d="M143.073 114.048L192.674 143.741" stroke="#FEAA00" stroke-width="2"/>
<path d="M143.073 110.674C143.073 107.975 141.048 105.95 138.686 105.275C138.349 105.275 138.012 105.275 137.674 105.275C134.637 105.275 132.275 107.637 132.275 110.674C132.275 113.711 134.637 116.073 137.674 116.073C140.711 116.073 143.073 113.711 143.073 110.674Z" stroke="#FEAA00" stroke-width="2"/>
</g>
<defs>
<clipPath id="clip0_332_223">
<rect width="273.68" height="221.35" fill="white" transform="translate(0.680176)"/>
</clipPath>
</defs>
</svg>
