<svg
                      width="150"
                      height="60"
                      viewBox="0 0 890 406"
                      fill="none"
                      padding="0%"
                      xmlns="http://www.w3.org/2000/svg"
                    >
                      <path
                        d="M170.263 1.27499C165.363 2.87499 157.463 6.87499 144.263 14.375C138.763 17.575 132.463 21.175 130.263 22.375C128.063 23.675 120.763 27.875 114.063 31.775C107.363 35.675 101.463 38.875 100.863 38.875C100.263 38.875 99.7626 39.275 99.7626 39.775C99.7626 40.275 98.1626 41.275 96.2626 41.975C94.3626 42.675 92.7626 43.575 92.7626 43.975C92.7626 44.375 91.7626 45.075 90.5626 45.475C89.2626 45.775 87.5626 46.675 86.7626 47.375C85.9626 48.075 82.7626 49.875 79.7626 51.475C76.7626 53.075 74.0626 54.575 73.7626 54.975C73.2626 55.575 58.1626 64.175 55.7626 65.175C54.9626 65.575 52.9626 66.775 51.2626 67.875C49.6626 68.975 46.9626 70.575 45.2626 71.375C43.6626 72.275 40.7626 73.775 39.0626 74.875C31.4626 79.475 29.6626 80.575 23.0626 84.275C14.0626 89.475 5.96265 97.875 2.76265 105.475L0.262646 111.375L0.0626462 203.575C-0.137354 258.575 0.162646 295.875 0.662646 295.875C1.16265 295.875 1.86265 297.175 2.26265 298.875C3.26265 303.275 10.7626 312.975 16.3626 317.075C21.8626 320.975 38.6626 331.275 46.2626 335.275C49.0626 336.675 53.0626 338.975 55.2626 340.375C57.4626 341.775 60.6626 343.575 62.2626 344.375C63.9626 345.275 66.1626 346.475 67.2626 347.075C74.4626 351.475 80.7626 355.175 88.7626 359.575C90.1626 360.375 93.0626 362.075 95.2626 363.475C97.4626 364.775 100.263 366.375 101.563 366.875C103.563 367.775 110.763 372.075 116.363 375.675C117.363 376.375 119.663 377.575 121.263 378.475C124.363 379.975 127.463 381.775 138.763 388.375C149.263 394.575 159.863 400.275 165.763 402.875C170.463 404.975 172.763 405.375 181.363 405.375C191.163 405.375 191.663 405.275 199.863 401.175C204.463 398.875 211.863 394.875 216.263 392.375C220.663 389.775 227.163 386.075 230.763 384.075C234.363 382.175 241.963 377.775 247.763 374.375C253.563 370.975 261.363 366.375 265.063 364.275C268.863 362.175 272.663 359.875 273.563 359.375C274.463 358.775 281.563 354.775 289.263 350.475C301.263 343.675 317.763 333.975 322.763 330.875C323.563 330.375 327.163 328.275 330.763 326.275C339.163 321.475 348.563 314.875 351.963 311.275C353.363 309.675 356.163 305.375 358.163 301.775L361.763 295.175V202.975L361.663 110.775L358.463 104.575C354.263 96.275 346.063 88.475 335.363 82.375C330.563 79.575 325.363 76.575 323.963 75.675C322.463 74.775 318.563 72.575 315.263 70.875C311.963 69.075 308.563 67.075 307.763 66.375C306.963 65.675 305.263 64.775 304.063 64.475C302.763 64.075 301.763 63.375 301.763 62.875C301.763 62.475 300.563 61.575 299.063 60.975C297.463 60.375 295.563 59.475 294.763 58.975C293.963 58.475 290.363 56.275 286.763 54.175C283.163 52.075 279.363 49.875 278.263 49.175C277.163 48.575 274.963 47.275 273.263 46.475C271.663 45.575 269.563 44.475 268.763 43.975C267.963 43.475 264.363 41.275 260.763 39.175C257.163 37.075 253.363 34.875 252.263 34.175C251.163 33.475 249.363 32.575 248.263 32.075C247.163 31.475 241.063 28.075 234.763 24.275C213.163 11.575 196.263 2.57499 191.263 1.27499C185.063 -0.425006 175.563 -0.425006 170.263 1.27499ZM189.063 90.875L191.763 93.875V111.175C191.763 126.575 191.963 128.675 193.763 131.675C196.763 136.575 203.463 138.375 209.263 135.675C211.863 134.575 216.263 127.675 215.163 126.575C213.963 125.375 216.963 117.875 219.463 115.975C222.963 113.175 229.563 113.175 233.163 115.975C234.563 117.075 235.563 118.375 235.263 118.875C234.963 119.375 235.363 119.875 235.963 120.075C236.963 120.475 237.263 129.475 237.263 161.475C237.263 198.875 237.363 202.575 239.063 204.975C243.963 212.275 256.763 211.175 259.863 203.175C260.363 201.875 260.763 188.675 260.863 173.775C260.863 156.475 261.263 146.875 261.863 146.875C262.463 146.875 262.663 146.475 262.363 145.975C261.463 144.575 266.563 140.175 269.863 139.475C275.463 138.375 283.263 143.575 281.163 147.075C280.763 147.775 280.863 147.875 281.563 147.475C282.463 146.975 282.763 161.475 282.663 203.175C282.663 256.875 282.563 259.575 280.763 262.575C278.063 267.175 272.363 268.675 267.363 266.375C261.763 263.675 260.863 261.075 260.863 246.875C260.763 240.075 260.263 233.075 259.563 231.275C257.263 224.875 246.563 222.875 241.163 227.975C236.863 231.975 236.463 235.575 237.263 258.875C237.963 282.775 237.463 287.475 233.063 290.775C229.963 293.275 223.163 293.575 219.963 291.275C215.263 287.975 215.263 288.975 215.263 223.375C215.163 154.275 215.563 158.475 208.063 154.775L203.863 152.775L199.263 154.775C191.663 158.175 191.763 157.075 191.763 210.475V257.075L188.363 260.475C185.663 263.175 184.163 263.875 181.063 263.875C173.663 263.875 169.563 258.475 169.763 249.075C169.863 245.975 169.863 237.775 169.863 231.075L169.763 218.675L166.363 215.275C163.463 212.375 162.263 211.875 158.263 211.875C154.263 211.875 153.063 212.375 150.163 215.275L146.763 218.675L146.663 241.575C146.563 287.075 146.663 286.475 143.563 289.575C138.763 294.275 129.163 293.475 126.363 287.975C125.363 286.175 124.963 280.675 124.863 269.475C124.763 251.275 123.963 248.675 117.463 245.475C109.263 241.475 100.763 247.575 100.763 257.475C100.763 261.375 100.263 262.575 97.3626 265.475C94.5626 268.275 93.1626 268.875 89.7626 268.875C86.3626 268.875 84.9626 268.275 82.1626 265.475L78.7626 262.075V204.675C78.8626 150.075 78.9626 147.075 80.7626 144.075C83.4626 139.575 89.1626 138.075 94.1626 140.375C100.663 143.475 100.663 143.575 100.763 183.775C100.763 223.475 100.863 224.375 106.763 227.375C112.963 230.575 120.363 228.275 123.263 222.275C124.463 219.775 124.763 214.875 124.763 198.875C124.763 180.075 124.863 178.475 126.863 175.775C127.963 174.175 129.363 173.075 129.863 173.375C130.363 173.775 130.763 173.575 130.763 173.075C130.763 172.575 132.763 172.075 135.163 172.075C138.663 171.875 140.263 172.475 142.763 174.475C144.463 175.975 145.663 177.775 145.363 178.475C145.063 179.275 145.263 179.875 145.763 179.875C146.363 179.875 146.763 181.575 146.763 183.775C146.763 190.775 153.163 195.775 160.363 194.475C163.763 193.775 168.963 189.675 169.463 187.175C169.663 186.475 169.763 165.575 169.763 140.775C169.863 102.975 170.063 95.175 171.363 92.775C174.763 86.175 183.963 85.175 189.063 90.875ZM142.963 116.775L146.263 119.675V136.375V153.075L142.963 155.975C140.463 158.175 138.763 158.875 135.463 158.875C131.263 158.875 126.263 156.475 127.263 154.875C127.563 154.475 127.163 153.875 126.363 153.575C124.263 152.775 124.163 122.875 126.263 118.775C127.663 116.175 128.863 115.375 131.063 115.775C131.463 115.775 131.763 115.375 131.763 114.875C131.763 114.275 133.563 113.875 135.763 113.875C138.763 113.875 140.563 114.575 142.963 116.775ZM185.063 279.375C185.863 280.175 186.763 280.575 187.063 280.275C187.263 279.975 188.463 280.975 189.563 282.375C191.463 284.775 191.663 286.375 191.663 298.475C191.663 311.275 191.463 312.075 189.163 314.875C184.363 320.575 174.763 319.575 171.363 313.075C169.363 309.275 169.363 288.775 171.263 284.075C173.463 278.975 181.863 276.075 185.063 279.375Z"
                        fill="#F7AC1D"
                      />
                      <path
                        d="M404.762 107.875C404.762 112.575 405.062 113.875 406.262 113.875C407.062 113.875 407.762 114.375 407.762 114.975C407.762 115.475 408.262 115.675 408.762 115.375C409.362 115.075 409.762 115.275 409.762 115.875C409.762 116.475 410.162 116.775 410.762 116.375C411.862 115.675 415.762 122.975 416.162 126.275C416.262 127.475 416.662 128.875 416.962 129.375C417.462 130.175 423.462 151.775 424.162 155.375C424.362 155.875 425.362 159.475 426.562 163.375C427.662 167.175 428.862 171.475 429.162 172.875C429.462 174.275 430.962 179.775 432.462 185.175C434.462 192.175 435.662 194.775 436.562 194.375C437.362 194.075 443.062 193.875 449.362 193.875H460.762L461.862 191.075C462.462 189.575 463.162 187.475 463.362 186.375C463.562 185.275 465.062 179.875 466.762 174.375C468.462 168.875 470.062 163.375 470.362 162.175C470.562 160.975 471.162 158.975 471.662 157.775C472.362 155.675 472.562 155.875 473.262 159.375C474.262 164.175 473.762 162.275 478.662 179.375C480.962 187.075 482.762 193.475 482.762 193.675C482.762 193.775 488.462 193.775 495.462 193.675L508.162 193.375L509.462 188.375C510.262 185.575 511.062 182.275 511.362 180.975C511.662 179.675 513.462 172.875 515.362 165.975C519.162 152.275 519.662 150.375 520.262 147.375C520.562 146.275 522.262 139.575 524.162 132.575C527.662 119.275 529.762 115.575 534.362 114.475C536.562 113.875 536.762 113.375 536.762 107.875V101.875H520.262H503.762V107.675V113.475L508.062 114.475C511.262 115.175 512.362 115.875 512.562 117.575C512.862 119.375 508.762 135.775 500.562 166.375L499.462 170.375L498.662 167.375C498.162 165.775 497.562 163.275 497.362 161.875C497.062 160.475 494.462 150.075 491.562 138.575C485.762 115.575 485.762 114.575 492.162 114.075L495.762 113.775V107.775V101.875H474.262H452.762V107.875C452.762 113.175 452.962 113.875 454.762 113.875C459.062 113.875 464.562 122.375 464.962 129.775C465.062 131.175 458.762 152.575 457.062 156.875C456.662 157.675 456.362 158.675 456.262 159.075C456.062 159.575 455.962 159.975 455.862 160.075C455.662 160.275 455.462 161.275 455.162 162.375C454.062 167.675 452.962 170.275 452.462 168.875C451.262 165.875 438.762 118.675 438.762 117.275C438.762 115.675 441.862 113.875 444.662 113.875C446.562 113.875 446.762 113.275 446.762 107.875V101.875H425.762H404.762V107.875Z"
                        fill="black"
                      />
                      <path
                        d="M691.163 104.275C690.863 105.575 690.763 107.875 690.963 109.475C691.263 111.875 691.863 112.475 695.763 113.375C699.163 114.175 700.363 115.075 700.863 116.875C701.963 120.775 701.863 177.375 700.763 180.275C699.963 182.475 699.163 182.875 695.763 182.875H691.763V188.375V193.875H713.263H734.763V188.375V182.875H730.363C727.163 182.875 725.763 182.375 725.363 181.175C724.963 180.275 724.763 163.675 724.763 144.375C724.863 125.175 724.863 107.675 724.863 105.575L724.763 101.875H708.263H691.763L691.163 104.275Z"
                        fill="black"
                      />
                      <path
                        d="M803.762 107.375C803.762 110.375 804.062 112.875 804.562 112.975C808.662 113.375 811.162 113.975 812.262 114.875C814.062 116.375 814.362 179.375 812.662 181.575C812.062 182.275 809.762 182.875 807.662 182.875H803.762V188.375V193.875H824.262H844.762V188.375C844.762 182.975 844.762 182.875 841.762 182.875C837.262 182.875 836.762 180.775 836.962 163.675C837.162 151.575 837.662 147.775 838.962 145.275C841.662 140.375 848.962 138.175 852.162 141.375C852.962 142.275 854.062 142.875 854.462 142.775C856.462 142.475 857.562 150.275 857.562 163.875C857.562 180.875 857.062 182.875 852.762 182.875C849.762 182.875 849.762 182.875 849.762 188.375V193.875H869.762H889.762V188.375V182.875H886.462C881.062 182.875 880.762 182.075 880.762 164.275C880.762 155.375 880.362 145.775 879.762 142.975C877.762 132.475 871.662 127.875 859.562 127.875C851.562 127.875 844.962 130.275 839.062 135.275L835.762 138.075V119.975V101.875H819.762H803.762V107.375Z"
                        fill="black"
                      />
                      <path
                        d="M758.362 105.575C758.062 106.575 757.562 109.175 757.262 111.375C755.862 120.175 749.862 128.275 743.662 129.575C740.862 130.075 740.762 130.375 740.762 135.475V140.875H745.262H749.762V160.175C749.762 181.775 750.862 187.675 755.462 192.075C759.262 195.575 763.862 196.875 772.162 196.875C787.462 196.775 793.162 190.675 794.462 172.975L795.062 164.075L788.862 163.675L782.762 163.375L782.662 169.375C782.562 172.675 782.562 175.975 782.662 176.775C782.862 177.475 782.562 178.775 782.162 179.775C781.762 180.675 781.362 181.775 781.362 182.375C781.262 182.875 779.862 183.475 778.162 183.675C772.662 184.175 772.262 182.775 771.962 160.675L771.662 140.875H780.162H788.762V135.375V129.875H780.262H771.762V116.875V103.875H765.362C760.062 103.875 758.762 104.175 758.362 105.575Z"
                        fill="black"
                      />
                      <path
                        d="M631.963 127.875C624.663 128.975 616.063 133.375 613.663 137.275C610.663 142.175 611.163 148.375 614.663 151.975C617.163 154.475 618.363 154.875 623.063 154.875C630.263 154.875 633.763 152.275 633.763 146.975C633.763 143.075 630.663 138.875 627.763 138.875C624.463 138.875 628.263 137.475 634.863 136.175C638.763 135.475 645.063 137.575 647.763 140.375C650.763 143.575 650.963 149.875 648.263 152.875C646.563 154.775 642.363 156.475 638.263 157.175C637.163 157.275 635.863 157.675 635.263 157.975C634.763 158.275 631.563 159.175 628.163 159.875C619.663 161.575 612.663 165.575 610.563 169.875C608.363 174.175 608.263 182.975 610.263 186.775C613.963 194.075 621.563 197.375 632.263 196.575C639.763 196.075 641.763 195.275 647.863 190.575C651.863 187.675 652.863 187.275 652.563 188.975C652.363 189.575 654.463 191.575 657.163 193.475C661.363 196.475 662.763 196.875 668.163 196.875C676.263 196.875 682.563 193.875 685.063 188.675C686.063 186.675 687.163 181.775 687.463 177.975L688.063 170.875H683.363C679.063 170.875 678.763 171.075 678.663 173.575C678.363 181.275 678.363 181.375 675.763 181.375H673.263L672.063 159.375C671.463 147.275 670.963 137.375 670.863 137.275C670.763 137.175 669.963 136.275 668.963 135.075C663.363 128.575 647.863 125.575 631.963 127.875ZM649.663 169.975C649.763 176.475 649.563 177.175 646.863 179.975C643.663 183.175 639.963 183.675 635.763 181.575C633.863 180.575 633.263 179.475 633.063 176.675C632.863 173.575 633.363 172.475 636.063 170.275C637.863 168.775 641.563 166.575 644.263 165.275C647.063 163.975 649.363 162.975 649.363 162.975C649.463 162.875 649.563 166.075 649.663 169.975Z"
                        fill="black"
                      />
                      <path
                        d="M552.462 129.375C549.262 130.475 545.862 132.775 541.862 136.675C536.762 141.775 535.662 143.475 533.762 149.775C531.162 158.275 531.362 167.775 534.362 176.375C536.762 183.275 545.362 191.675 552.762 194.375C560.062 196.975 573.062 197.075 580.762 194.475C587.862 191.975 595.762 184.275 598.062 177.575L599.662 172.875H591.362H583.162L581.762 176.475C579.862 181.275 575.562 183.375 567.962 183.075C561.362 182.875 557.462 178.275 556.562 169.575L555.962 164.875H578.562H601.062L600.462 157.875C599.362 145.075 593.762 135.975 583.462 130.675C577.862 127.875 559.862 127.075 552.462 129.375ZM573.562 142.175C574.762 143.475 575.462 144.875 575.062 145.175C574.762 145.575 574.862 145.875 575.462 145.875C575.962 145.875 576.462 146.475 576.562 147.075C576.662 147.775 576.962 149.575 577.362 150.975L577.962 153.675L567.362 153.775L556.762 153.875V151.375C556.762 147.775 559.262 142.275 561.462 140.975C564.862 139.075 571.162 139.675 573.562 142.175Z"
                        fill="black"
                      />
                      <path
                        d="M411.062 210.675L406.762 210.975V216.775V222.575L412.262 223.175C415.262 223.475 418.162 223.975 418.662 224.375C420.162 225.275 420.162 287.775 418.662 289.475C417.962 290.375 415.462 290.875 412.162 290.875H406.762V296.875C406.762 302.775 406.862 302.875 409.562 302.975C428.062 303.375 473.662 302.575 478.262 301.775C486.162 300.475 492.362 297.175 496.162 292.475C499.162 288.875 499.262 288.375 499.262 279.075C499.262 270.375 498.962 268.975 496.762 265.675C494.262 261.875 486.062 256.775 480.262 255.375L477.262 254.675L481.162 252.775C490.362 248.275 494.262 243.575 495.362 235.675C496.762 225.475 490.862 216.575 480.762 213.375C476.562 212.075 470.562 211.575 455.762 211.275C445.062 210.975 431.562 210.775 425.762 210.575C419.962 210.475 413.362 210.475 411.062 210.675ZM459.862 223.975C466.062 225.375 468.962 228.475 469.562 234.675C470.462 244.375 466.062 248.275 452.862 249.475L445.762 250.175L445.862 236.575V222.975H450.562C453.162 222.975 457.362 223.475 459.862 223.975ZM465.362 263.375C469.962 265.275 472.762 270.175 472.762 276.175C472.762 283.175 469.662 288.475 465.162 289.175C464.162 289.275 462.762 289.775 462.062 290.175C461.462 290.575 457.462 290.875 453.362 290.775L445.762 290.675V275.575V260.575L453.862 261.275C458.362 261.675 463.462 262.575 465.362 263.375Z"
                        fill="black"
                      />
                      <path
                        d="M684.662 236.275C684.462 236.575 683.062 236.875 681.762 237.175C671.262 238.775 663.762 247.075 663.762 257.175C663.762 268.675 667.962 272.975 684.262 277.975C689.762 279.675 694.962 281.375 695.762 281.675C696.562 281.975 698.062 282.375 699.062 282.575C702.662 283.275 704.562 284.875 704.562 287.275C704.562 291.375 701.462 293.175 694.962 293.175C687.562 293.175 681.662 290.175 677.562 284.375C674.462 279.975 674.262 279.875 669.062 279.875H663.762V291.875V303.875H668.762C673.162 303.875 673.962 303.575 674.962 301.375C675.662 299.775 676.462 299.175 677.162 299.675C677.762 300.175 680.962 301.675 684.262 302.975C691.262 305.775 704.162 306.275 711.762 304.075C732.262 298.075 735.962 275.375 717.862 266.475C713.362 264.275 711.362 263.675 699.762 260.475C687.162 256.975 683.562 250.475 692.762 247.875C698.862 246.175 707.862 249.175 713.162 254.775C715.662 257.375 716.862 257.875 720.962 257.875H725.762V247.875V237.875H721.162C718.262 237.875 716.062 238.475 715.362 239.275C714.462 240.575 713.262 240.375 707.262 238.375C702.262 236.675 698.062 235.875 692.662 235.875C688.462 235.875 684.862 236.075 684.662 236.275Z"
                        fill="black"
                      />
                      <path
                        d="M529.764 238.575C521.964 241.275 514.764 248.575 511.764 256.975C510.264 260.975 509.864 264.475 510.064 272.275C510.264 284.175 512.164 289.075 519.264 296.275C525.664 302.675 532.764 305.275 544.764 305.275C553.164 305.375 554.964 304.975 560.464 302.475C563.864 300.975 567.964 298.275 569.464 296.475C572.264 293.475 576.764 284.975 576.764 282.875C576.764 282.275 573.564 281.875 569.064 281.875H561.264L559.264 285.575C556.764 290.275 553.664 291.875 547.064 291.875C542.964 291.875 541.264 291.375 538.864 289.275C537.164 287.875 535.964 286.275 536.264 285.875C536.564 285.375 536.364 284.875 535.764 284.675C535.164 284.475 534.464 281.975 534.064 279.075L533.464 273.875H555.664H577.764V267.975C577.764 255.175 571.464 244.975 560.264 239.775C554.864 237.175 553.264 236.875 544.264 236.875C537.864 236.975 532.664 237.575 529.764 238.575ZM549.864 249.875C552.364 251.275 554.464 255.575 554.564 259.675L554.664 262.875L544.264 262.775L533.964 262.675L534.364 259.075C534.664 257.075 535.364 255.075 536.064 254.675C536.764 254.275 536.864 253.875 536.364 253.875C535.864 253.875 536.464 252.775 537.764 251.375C540.264 248.675 546.164 247.975 549.864 249.875Z"
                        fill="black"
                      />
                      <path
                        d="M605.262 238.875C599.162 241.275 592.462 247.575 588.962 254.375C586.662 258.875 586.362 260.575 586.362 270.375C586.262 280.275 586.562 281.975 588.862 286.975C594.362 298.675 604.162 304.775 618.662 305.375C633.862 306.075 644.662 300.675 650.262 289.575C653.962 281.975 653.962 281.875 644.962 281.875C637.162 281.875 637.162 281.875 635.662 285.075C633.462 289.975 629.862 292.075 623.762 292.075C615.462 292.075 611.462 288.075 610.162 278.475L609.462 273.875H632.262H655.062L654.362 266.775C653.962 262.775 652.562 257.275 651.362 254.475C648.262 247.475 640.462 240.475 633.662 238.475C626.062 236.175 611.662 236.475 605.262 238.875ZM627.962 251.975C630.162 254.075 630.762 255.675 630.762 258.775V262.875H620.362H610.062L610.862 258.175C612.162 251.475 614.962 248.875 620.662 249.075C624.162 249.175 625.862 249.875 627.962 251.975Z"
                        fill="black"
                      />
                    </svg>